<svg width="250" height="250" viewBox="0 0 250 250" fill="none" xmlns="http://www.w3.org/2000/svg">
<path d="M151.776 196C148.983 179.987 137.625 159.878 116.026 143.678C105.413 135.672 94.6133 130.458 84 128.224V120.404C105.04 115.376 125.708 101.225 138.928 82.0469C145.632 72.3646 149.914 62.8685 151.776 53H159.596C162.762 71.806 177.285 92.6602 197.022 106.625C206.704 113.514 216.759 118.169 227 120.404V128.224C206.332 132.507 182.312 150.94 170.396 169.746C164.437 179.242 160.9 187.993 159.596 196H151.776Z" fill="#FFA800"/>
<path d="M145.468 250C120.09 250 98.288 244.943 80.0621 234.828C62.0668 224.483 48.2243 210 38.5346 191.379C28.8449 172.529 24 150.345 24 124.828C24 105.747 26.7685 88.6207 32.3055 73.4483C37.8425 58.046 45.8019 44.9425 56.1838 34.1379C66.5656 23.1034 79.2546 14.7126 94.2506 8.96552C109.477 2.98851 126.55 0 145.468 0C158.157 0 170.615 1.6092 182.842 4.82759C195.07 8.04598 205.798 12.6437 215.026 18.6207C219.871 21.6092 223.101 25.2874 224.716 29.6552C226.331 33.7931 226.677 37.931 225.754 42.069C224.831 45.977 222.87 49.3103 219.871 52.069C217.103 54.8276 213.527 56.4368 209.143 56.8966C204.99 57.1264 200.376 55.6322 195.301 52.4138C188.149 47.8161 180.42 44.4828 172.115 42.4138C163.809 40.3448 155.388 39.3104 146.852 39.3104C130.472 39.3104 116.629 42.6437 105.325 49.3103C94.0199 55.977 85.4837 65.6322 79.716 78.2759C73.9483 90.9195 71.0644 106.437 71.0644 124.828C71.0644 142.988 73.9483 158.506 79.716 171.379C85.4837 184.253 94.0199 194.023 105.325 200.69C116.629 207.356 130.472 210.69 146.852 210.69C155.619 210.69 164.27 209.655 172.807 207.586C181.343 205.287 189.418 201.839 197.031 197.241C202.107 194.253 206.605 192.988 210.527 193.448C214.68 193.678 218.141 195.057 220.909 197.586C223.678 200.115 225.523 203.333 226.446 207.241C227.369 210.92 227.138 214.828 225.754 218.966C224.37 222.874 221.601 226.322 217.449 229.31C208.22 235.977 197.146 241.149 184.227 244.828C171.538 248.276 158.618 250 145.468 250Z" fill="#FFCE6D"/>
</svg>
